<?xml version="1.0" ?><!DOCTYPE svg  PUBLIC '-//W3C//DTD SVG 1.1//EN'  'http://www.w3.org/Graphics/SVG/1.1/DTD/svg11.dtd'><svg enable-background="new 0 0 100 100" height="100px" id="Layer_1" version="1.1" viewBox="0 0 100 100" width="100px" xml:space="preserve" xmlns="http://www.w3.org/2000/svg" xmlns:xlink="http://www.w3.org/1999/xlink"><g><circle cx="50" cy="50.001" fill="#003382" r="45"/><g><path clip-rule="evenodd" d="M51.059,48.854c0.568,0.342,1.128,0.633,1.638,0.992    c1.797,1.271,2.822,3.049,3.198,5.184c0.397,2.244,0.138,4.42-0.964,6.449c-1.016,1.869-2.568,3.154-4.489,4.014    c-1.647,0.736-3.385,1.133-5.18,1.152c-4.162,0.045-8.324,0.035-12.486,0.045c-0.08,0-0.16-0.014-0.278-0.023    c0-0.119,0-0.227,0-0.334c0-9.965-0.002-19.934,0.002-29.9c0.002-1.848,1.605-3.463,3.453-3.469c2.906-0.01,5.812-0.037,8.72,0.01    c2.44,0.041,4.76,0.59,6.772,2.059c2.029,1.482,3.089,3.51,3.261,6.008c0.144,2.066-0.278,3.994-1.516,5.68    c-0.415,0.566-0.953,1.043-1.447,1.549C51.536,48.478,51.299,48.651,51.059,48.854z M39.062,60.907    c0.08,0.016,0.12,0.029,0.158,0.029c2.045-0.004,4.094,0.049,6.137-0.031c1.479-0.059,2.715-0.721,3.396-2.1    c0.785-1.586,0.81-3.236-0.002-4.82c-0.777-1.518-2.167-2.1-3.79-2.152c-1.336-0.041-2.675-0.016-4.011-0.006    c-0.934,0.008-1.641,0.609-1.809,1.531c-0.053,0.287-0.076,0.582-0.076,0.875c-0.006,2.115-0.004,4.232-0.004,6.35    C39.062,60.683,39.062,60.784,39.062,60.907z M39.078,46.579c1.634,0,3.223,0.002,4.81,0c0.225,0,0.446,0.008,0.67-0.012    c1.182-0.1,2.167-0.559,2.829-1.582c0.604-0.934,0.751-1.971,0.669-3.057c-0.144-1.877-1.393-3.209-3.266-3.352    c-1.24-0.094-2.489-0.08-3.732-0.045c-0.822,0.023-1.541,0.344-1.819,1.209c-0.122,0.375-0.164,0.791-0.168,1.191    c-0.018,1.771-0.008,3.545-0.006,5.316C39.064,46.347,39.072,46.446,39.078,46.579z" fill="#FFFFFF" fill-rule="evenodd"/><path clip-rule="evenodd" d="M59.383,62.985c-0.004-2.209,1.797-4.006,4.021-4.01    c2.284-0.004,4.102,1.801,4.1,4.068c-0.002,2.143-1.855,4.006-3.99,4.01C61.202,67.058,59.387,65.271,59.383,62.985z" fill="#FFFFFF" fill-rule="evenodd"/></g></g></svg>